<svg xmlns="http://www.w3.org/2000/svg" width="20.397" height="20.397" viewBox="0 0 20.397 20.397">
  <g id="check-mark" transform="translate(-33.181 -54.853)">
    <g id="_13-Cancel" data-name="13-Cancel" transform="translate(33.181 54.853)">
      <ellipse id="Ellipse_2" data-name="Ellipse 2" cx="0.454" cy="0.454" rx="0.454" ry="0.454" transform="translate(0 0)"/>
      <ellipse id="Ellipse_3" data-name="Ellipse 3" cx="0.454" cy="0.454" rx="0.454" ry="0.454" transform="translate(1.772 0)"/>
      <ellipse id="Ellipse_4" data-name="Ellipse 4" cx="0.454" cy="0.454" rx="0.454" ry="0.454" transform="translate(3.543 0)"/>
      <ellipse id="Ellipse_5" data-name="Ellipse 5" cx="0.454" cy="0.454" rx="0.454" ry="0.454" transform="translate(5.315 0)"/>
      <ellipse id="Ellipse_6" data-name="Ellipse 6" cx="0.454" cy="0.454" rx="0.454" ry="0.454" transform="translate(7.087 0)"/>
      <ellipse id="Ellipse_7" data-name="Ellipse 7" cx="0.454" cy="0.454" rx="0.454" ry="0.454" transform="translate(8.858 0)"/>
      <ellipse id="Ellipse_8" data-name="Ellipse 8" cx="0.454" cy="0.454" rx="0.454" ry="0.454" transform="translate(10.63 0)"/>
      <ellipse id="Ellipse_9" data-name="Ellipse 9" cx="0.454" cy="0.454" rx="0.454" ry="0.454" transform="translate(12.402 0)"/>
      <ellipse id="Ellipse_10" data-name="Ellipse 10" cx="0.454" cy="0.454" rx="0.454" ry="0.454" transform="translate(14.173 0)"/>
      <ellipse id="Ellipse_11" data-name="Ellipse 11" cx="0.454" cy="0.454" rx="0.454" ry="0.454" transform="translate(0 19.489)"/>
      <ellipse id="Ellipse_12" data-name="Ellipse 12" cx="0.454" cy="0.454" rx="0.454" ry="0.454" transform="translate(1.772 19.489)"/>
      <ellipse id="Ellipse_13" data-name="Ellipse 13" cx="0.454" cy="0.454" rx="0.454" ry="0.454" transform="translate(3.543 19.489)"/>
      <ellipse id="Ellipse_14" data-name="Ellipse 14" cx="0.454" cy="0.454" rx="0.454" ry="0.454" transform="translate(5.315 19.489)"/>
      <ellipse id="Ellipse_15" data-name="Ellipse 15" cx="0.454" cy="0.454" rx="0.454" ry="0.454" transform="translate(7.087 19.489)"/>
      <ellipse id="Ellipse_16" data-name="Ellipse 16" cx="0.454" cy="0.454" rx="0.454" ry="0.454" transform="translate(8.858 19.489)"/>
      <ellipse id="Ellipse_17" data-name="Ellipse 17" cx="0.454" cy="0.454" rx="0.454" ry="0.454" transform="translate(10.63 19.489)"/>
      <ellipse id="Ellipse_18" data-name="Ellipse 18" cx="0.454" cy="0.454" rx="0.454" ry="0.454" transform="translate(12.402 19.489)"/>
      <ellipse id="Ellipse_19" data-name="Ellipse 19" cx="0.454" cy="0.454" rx="0.454" ry="0.454" transform="translate(14.173 19.489)"/>
      <ellipse id="Ellipse_20" data-name="Ellipse 20" cx="0.454" cy="0.454" rx="0.454" ry="0.454" transform="translate(15.945 19.489)"/>
      <ellipse id="Ellipse_21" data-name="Ellipse 21" cx="0.454" cy="0.454" rx="0.454" ry="0.454" transform="translate(17.717 19.489)"/>
      <ellipse id="Ellipse_22" data-name="Ellipse 22" cx="0.454" cy="0.454" rx="0.454" ry="0.454" transform="translate(19.488 19.489)"/>
      <ellipse id="Ellipse_23" data-name="Ellipse 23" cx="0.454" cy="0.454" rx="0.454" ry="0.454" transform="translate(0 17.717)"/>
      <ellipse id="Ellipse_24" data-name="Ellipse 24" cx="0.454" cy="0.454" rx="0.454" ry="0.454" transform="translate(0 15.945)"/>
      <ellipse id="Ellipse_25" data-name="Ellipse 25" cx="0.454" cy="0.454" rx="0.454" ry="0.454" transform="translate(0 14.173)"/>
      <ellipse id="Ellipse_26" data-name="Ellipse 26" cx="0.454" cy="0.454" rx="0.454" ry="0.454" transform="translate(0 12.402)"/>
      <ellipse id="Ellipse_27" data-name="Ellipse 27" cx="0.454" cy="0.454" rx="0.454" ry="0.454" transform="translate(0 10.63)"/>
      <ellipse id="Ellipse_28" data-name="Ellipse 28" cx="0.454" cy="0.454" rx="0.454" ry="0.454" transform="translate(0 8.858)"/>
      <ellipse id="Ellipse_29" data-name="Ellipse 29" cx="0.454" cy="0.454" rx="0.454" ry="0.454" transform="translate(0 7.087)"/>
      <ellipse id="Ellipse_30" data-name="Ellipse 30" cx="0.454" cy="0.454" rx="0.454" ry="0.454" transform="translate(0 5.315)"/>
      <ellipse id="Ellipse_31" data-name="Ellipse 31" cx="0.454" cy="0.454" rx="0.454" ry="0.454" transform="translate(0 3.543)"/>
      <ellipse id="Ellipse_32" data-name="Ellipse 32" cx="0.454" cy="0.454" rx="0.454" ry="0.454" transform="translate(0 1.772)"/>
      <ellipse id="Ellipse_33" data-name="Ellipse 33" cx="0.454" cy="0.454" rx="0.454" ry="0.454" transform="translate(19.489 17.717)"/>
      <ellipse id="Ellipse_34" data-name="Ellipse 34" cx="0.454" cy="0.454" rx="0.454" ry="0.454" transform="translate(19.489 15.945)"/>
      <ellipse id="Ellipse_35" data-name="Ellipse 35" cx="0.454" cy="0.454" rx="0.454" ry="0.454" transform="translate(19.489 14.173)"/>
      <ellipse id="Ellipse_36" data-name="Ellipse 36" cx="0.454" cy="0.454" rx="0.454" ry="0.454" transform="translate(19.489 12.402)"/>
      <ellipse id="Ellipse_37" data-name="Ellipse 37" cx="0.454" cy="0.454" rx="0.454" ry="0.454" transform="translate(19.489 10.63)"/>
      <ellipse id="Ellipse_38" data-name="Ellipse 38" cx="0.454" cy="0.454" rx="0.454" ry="0.454" transform="translate(19.489 8.858)"/>
      <ellipse id="Ellipse_39" data-name="Ellipse 39" cx="0.454" cy="0.454" rx="0.454" ry="0.454" transform="translate(19.489 7.087)"/>
      <ellipse id="Ellipse_40" data-name="Ellipse 40" cx="0.454" cy="0.454" rx="0.454" ry="0.454" transform="translate(19.489 5.315)"/>
    </g>
  </g>
</svg>
