<svg xmlns="http://www.w3.org/2000/svg" width="1651.46" height="1591.451" viewBox="0 0 1651.46 1591.451">
  <g id="Group_812" data-name="Group 812" transform="translate(-33.972 -202.516)">
    <g id="Group_804" data-name="Group 804" transform="translate(620.229 787.871)">
      <text id="المميزات" transform="translate(223 102)" fill="#202f8f" font-size="113" font-family="SegoeUI, Segoe UI"><tspan x="-202" y="0">المميزات</tspan></text>
      <text id="ADVANTAGES" transform="translate(59.564 185.845)" fill="#202f8f" font-size="45" font-family="SegoeUI, Segoe UI"><tspan x="0" y="0">ADVANTAGES</tspan></text>
    </g>
    <g id="Group_805" data-name="Group 805" transform="translate(1224.698 202.516)">
      <text id="نظام_سحابي_متكامل" data-name="نظام سحابي
 متكامل" transform="translate(124 238.97)" fill="#161615" font-size="52" font-family="SegoeUI, Segoe UI"><tspan x="-133" y="0">نظام سحابي</tspan><tspan y="0"></tspan><tspan x="-83" y="63"> </tspan><tspan y="63">متكامل</tspan></text>
      <circle id="Ellipse_85" data-name="Ellipse 85" cx="88.117" cy="88.117" r="88.117" transform="translate(42.495)" fill="#202f8f"/>
    </g>
    <g id="Group_806" data-name="Group 806" transform="translate(278.746 202.516)">
      <text id="زيادة_فرص_البيع" data-name="زيادة فرص
البيع" transform="translate(110 235.97)" fill="#161615" font-size="50" font-family="SegoeUI, Segoe UI"><tspan x="-113" y="0">زيادة فرص</tspan><tspan y="0"></tspan><tspan x="-45" y="60">البيع</tspan></text>
      <circle id="Ellipse_86" data-name="Ellipse 86" cx="88.117" cy="88.117" r="88.117" transform="translate(32.184)" fill="#202f8f"/>
    </g>
    <g id="Group_807" data-name="Group 807" transform="translate(69.909 703.653)">
      <text id="نطاق_خاص" data-name="نطاق خاص" transform="translate(80.063 235.969)" fill="#161615" font-size="50" font-family="SegoeUI, Segoe UI"><tspan x="-115" y="0">نطاق خاص</tspan></text>
      <circle id="Ellipse_87" data-name="Ellipse 87" cx="88.117" cy="88.117" r="88.117" fill="#202f8f"/>
    </g>
    <g id="Group_808" data-name="Group 808" transform="translate(1407.431 703.653)">
      <text id="الهوية_التجارية" data-name="الهوية التجارية" transform="translate(125 238.971)" fill="#161615" font-size="52" font-family="SegoeUI, Segoe UI"><tspan x="-152" y="0">الهوية التجارية</tspan></text>
      <circle id="Ellipse_88" data-name="Ellipse 88" cx="88.117" cy="88.117" r="88.117" transform="translate(42.495)" fill="#202f8f"/>
    </g>
    <g id="Group_809" data-name="Group 809" transform="translate(554.923 1480.123)">
      <text id="الانتقال_السريع_لحسابات_التواصل_الاجتماعي" data-name="الانتقال السريع لحسابات 
التواصل الاجتماعي" transform="translate(282 237.844)" fill="#161615" font-size="52" font-family="SegoeUI, Segoe UI"><tspan x="-260" y="0">الانتقال السريع لحسابات</tspan><tspan y="0"> </tspan><tspan x="-198" y="63">التواصل الاجتماعي</tspan></text>
      <circle id="Ellipse_89" data-name="Ellipse 89" cx="88.117" cy="88.117" r="88.117" transform="translate(210.914)" fill="#202f8f"/>
    </g>
    <g id="Group_810" data-name="Group 810" transform="translate(1202.723 1223.376)">
      <text id="لوحة_تحكم_لإدارة_المنيو_بالكامل" data-name="لوحة تحكم لإدارة
المنيو بالكامل" transform="translate(180 238.969)" fill="#161615" font-size="52" font-family="SegoeUI, Segoe UI"><tspan x="-172" y="0">لوحة تحكم لإدارة</tspan><tspan y="0"></tspan><tspan x="-143" y="63">المنيو بالكامل</tspan></text>
      <circle id="Ellipse_90" data-name="Ellipse 90" cx="88.117" cy="88.117" r="88.117" transform="translate(100.927)" fill="#202f8f"/>
    </g>
    <g id="Group_811" data-name="Group 811" transform="translate(157.304 1223.376)">
      <text id="تقييم_الزائر" data-name="تقييم الزائر" transform="translate(139 238.969)" fill="#161615" font-size="52" font-family="SegoeUI, Segoe UI"><tspan x="-111" y="0">تقييم الزائر</tspan></text>
      <circle id="Ellipse_91" data-name="Ellipse 91" cx="88.117" cy="88.117" r="88.117" transform="translate(59.683)" fill="#202f8f"/>
    </g>
    <line id="Line_20" data-name="Line 20" x2="167.018" transform="translate(1149.624 896.207)" fill="none" stroke="#161615" stroke-width="4.62"/>
    <line id="Line_21" data-name="Line 21" x2="118.1" y2="118.1" transform="translate(1063.025 1105.276)" fill="none" stroke="#161615" stroke-width="4.62"/>
    <line id="Line_22" data-name="Line 22" y2="167.018" transform="translate(853.955 1191.876)" fill="none" stroke="#161615" stroke-width="4.62"/>
    <line id="Line_23" data-name="Line 23" x1="118.1" y2="118.1" transform="translate(526.786 1105.276)" fill="none" stroke="#161615" stroke-width="4.62"/>
    <line id="Line_24" data-name="Line 24" x1="167.018" transform="translate(391.268 896.207)" fill="none" stroke="#161615" stroke-width="4.62"/>
    <path id="Path_822" data-name="Path 822" d="M202.832,309.151l118.09,118.114a294.7,294.7,0,0,0-86.606,209.061c0,163.3,132.4,295.671,295.668,295.671,163.3,0,295.671-132.368,295.671-295.671a294.7,294.7,0,0,0-86.606-209.061L857.17,309.151" transform="translate(323.955 259.886)" fill="none" stroke="#161615" stroke-width="4.62"/>
    <circle id="Ellipse_92" data-name="Ellipse 92" cx="32.144" cy="32.144" r="32.144" transform="translate(526.142 864.063)" fill="#a6ecf7"/>
    <circle id="Ellipse_93" data-name="Ellipse 93" cx="32.144" cy="32.144" r="32.144" transform="translate(612.742 654.993)" fill="#a6ecf7"/>
    <circle id="Ellipse_94" data-name="Ellipse 94" cx="32.144" cy="32.144" r="32.144" transform="translate(1030.88 654.993)" fill="#a6ecf7"/>
    <circle id="Ellipse_95" data-name="Ellipse 95" cx="32.144" cy="32.144" r="32.144" transform="translate(1117.48 864.063)" fill="#a6ecf7"/>
    <circle id="Ellipse_96" data-name="Ellipse 96" cx="32.144" cy="32.144" r="32.144" transform="translate(1040.404 1073.132)" fill="#a6ecf7"/>
    <circle id="Ellipse_97" data-name="Ellipse 97" cx="32.144" cy="32.144" r="32.144" transform="translate(821.812 1164.326)" fill="#a6ecf7"/>
    <path id="Path_823" data-name="Path 823" d="M32.144,0A32.144,32.144,0,1,1,0,32.144,32.144,32.144,0,0,1,32.144,0Z" transform="translate(612.742 1073.132)" fill="#a6ecf7"/>
  </g>
</svg>
