<svg id="instagram-2-1-logo-svgrepo-com" xmlns="http://www.w3.org/2000/svg" xmlns:xlink="http://www.w3.org/1999/xlink" width="48" height="46.771" viewBox="0 0 48 46.771">
  <defs>
    <radialGradient id="radial-gradient" cx="0.065" cy="0.978" r="1.27" gradientUnits="objectBoundingBox">
      <stop offset="0.09" stop-color="#fa8f21"/>
      <stop offset="0.78" stop-color="#d82d7e"/>
    </radialGradient>
    <radialGradient id="radial-gradient-2" cx="0.693" cy="0.946" r="1.117" gradientUnits="objectBoundingBox">
      <stop offset="0" stop-color="#0cf"/>
      <stop offset="0.64" stop-color="#202f8f"/>
      <stop offset="1" stop-color="#8c3aaa"/>
    </radialGradient>
  </defs>
  <path id="Path_926" data-name="Path 926" d="M12.172,46.606a16.531,16.531,0,0,1-5.437-.981,9.123,9.123,0,0,1-3.367-2.134,8.777,8.777,0,0,1-2.19-3.279,15.4,15.4,0,0,1-1.007-5.3C.029,31.908,0,31.005,0,23.388S.031,14.87.17,11.86a15.483,15.483,0,0,1,1.007-5.3,8.878,8.878,0,0,1,2.19-3.282A9.064,9.064,0,0,1,6.733,1.147,16.531,16.531,0,0,1,12.17.165C15.257.028,16.185,0,24,0S32.741.031,35.83.165a16.624,16.624,0,0,1,5.437.981,9.087,9.087,0,0,1,3.367,2.134,8.816,8.816,0,0,1,2.19,3.281,15.4,15.4,0,0,1,1.007,5.3c.141,3.009.17,3.91.17,11.528s-.029,8.518-.17,11.528a15.467,15.467,0,0,1-1.007,5.3,8.828,8.828,0,0,1-2.19,3.279,9.111,9.111,0,0,1-3.367,2.134,16.531,16.531,0,0,1-5.437.981c-3.086.138-4.013.165-11.831.165s-8.742-.026-11.828-.165" fill="url(#radial-gradient)"/>
  <path id="Path_927" data-name="Path 927" d="M12.172,46.606a16.531,16.531,0,0,1-5.437-.981,9.123,9.123,0,0,1-3.367-2.134,8.777,8.777,0,0,1-2.19-3.279,15.4,15.4,0,0,1-1.007-5.3C.029,31.908,0,31.005,0,23.388S.031,14.87.17,11.86a15.483,15.483,0,0,1,1.007-5.3,8.878,8.878,0,0,1,2.19-3.282A9.064,9.064,0,0,1,6.733,1.147,16.531,16.531,0,0,1,12.17.165C15.257.028,16.185,0,24,0S32.741.031,35.83.165a16.624,16.624,0,0,1,5.437.981,9.087,9.087,0,0,1,3.367,2.134,8.816,8.816,0,0,1,2.19,3.281,15.4,15.4,0,0,1,1.007,5.3c.141,3.009.17,3.91.17,11.528s-.029,8.518-.17,11.528a15.467,15.467,0,0,1-1.007,5.3,8.828,8.828,0,0,1-2.19,3.279,9.111,9.111,0,0,1-3.367,2.134,16.531,16.531,0,0,1-5.437.981c-3.086.138-4.013.165-11.831.165s-8.742-.026-11.828-.165" fill="url(#radial-gradient-2)"/>
  <path id="Path_928" data-name="Path 928" d="M445.521,453.412a4.84,4.84,0,1,1,4.835,4.631,4.736,4.736,0,0,1-4.835-4.631m-2.614,0a7.456,7.456,0,1,0,7.449-7.134,7.3,7.3,0,0,0-7.449,7.134M456.359,446a1.742,1.742,0,1,0,1.741-1.666h0A1.706,1.706,0,0,0,456.359,446M444.5,464.72a8.327,8.327,0,0,1-2.694-.478,4.533,4.533,0,0,1-1.669-1.039,4.273,4.273,0,0,1-1.085-1.6,7.388,7.388,0,0,1-.5-2.58c-.07-1.464-.084-1.9-.084-5.614s.015-4.149.084-5.614a7.444,7.444,0,0,1,.5-2.58,4.3,4.3,0,0,1,1.085-1.6,4.5,4.5,0,0,1,1.669-1.039,8.32,8.32,0,0,1,2.694-.478c1.529-.067,1.988-.081,5.86-.081s4.332.014,5.862.081a8.383,8.383,0,0,1,2.694.478,4.519,4.519,0,0,1,1.669,1.039,4.291,4.291,0,0,1,1.085,1.6,7.388,7.388,0,0,1,.5,2.58c.07,1.466.084,1.9.084,5.614s-.014,4.149-.084,5.614a7.421,7.421,0,0,1-.5,2.58,4.292,4.292,0,0,1-1.085,1.6,4.533,4.533,0,0,1-1.669,1.039,8.32,8.32,0,0,1-2.694.478c-1.529.067-1.988.081-5.862.081s-4.332-.013-5.86-.081m-.12-25.117a11.049,11.049,0,0,0-3.521.645,7.159,7.159,0,0,0-2.57,1.6,6.76,6.76,0,0,0-1.673,2.461,9.813,9.813,0,0,0-.674,3.372c-.072,1.481-.088,1.955-.088,5.728s.016,4.246.088,5.728a9.812,9.812,0,0,0,.674,3.372,6.768,6.768,0,0,0,1.673,2.461,7.168,7.168,0,0,0,2.57,1.6,11.059,11.059,0,0,0,3.521.645c1.547.067,2.041.084,5.981.084s4.434-.016,5.981-.084a11.051,11.051,0,0,0,3.521-.645,7.174,7.174,0,0,0,2.57-1.6,6.784,6.784,0,0,0,1.673-2.461,9.787,9.787,0,0,0,.674-3.372c.07-1.482.087-1.955.087-5.728s-.016-4.246-.087-5.728a9.81,9.81,0,0,0-.674-3.372,6.81,6.81,0,0,0-1.673-2.461,7.138,7.138,0,0,0-2.568-1.6,11.035,11.035,0,0,0-3.521-.645c-1.547-.068-2.041-.084-5.98-.084s-4.434.016-5.982.084" transform="translate(-426.28 -429.869)" fill="#fff"/>
</svg>
