<svg id="tiktok-logo-logo-svgrepo-com" xmlns="http://www.w3.org/2000/svg" xmlns:xlink="http://www.w3.org/1999/xlink" width="48" height="48" viewBox="0 0 48 48">
  <defs>
    <linearGradient id="linear-gradient" x1="0.5" x2="0.5" y2="1" gradientUnits="objectBoundingBox">
      <stop offset="0" stop-color="#202f8f"/>
      <stop offset="1" stop-color="#0cf"/>
    </linearGradient>
  </defs>
  <path id="Path_929" data-name="Path 929" d="M4.8,0H43.2A4.8,4.8,0,0,1,48,4.8V43.2A4.8,4.8,0,0,1,43.2,48H4.8A4.8,4.8,0,0,1,0,43.2V4.8A4.8,4.8,0,0,1,4.8,0Z" fill-rule="evenodd" fill="url(#linear-gradient)"/>
  <path id="Path_930" data-name="Path 930" d="M155.3,207.921a2.623,2.623,0,1,0,0-5.246h-.4a2.623,2.623,0,1,1,0,5.246Z" transform="translate(-125.163 -163.761)" fill="#ee1d51" fill-rule="evenodd"/>
  <path id="Path_931" data-name="Path 931" d="M141.91,202.675h-.4a2.623,2.623,0,1,0,0,5.246h.4a2.623,2.623,0,1,1,0-5.246Z" transform="translate(-112.205 -163.761)" fill="#66c8cf" fill-rule="evenodd"/>
  <ellipse id="Ellipse_214" data-name="Ellipse 214" cx="1.286" cy="1.275" rx="1.286" ry="1.275" transform="translate(28.438 40.261)" fill="#010101"/>
  <path id="Path_932" data-name="Path 932" d="M50,196.5v1.33h1.558V202.9h1.558v-5.031h1.268l.435-1.366Zm12.752,0v1.33h1.558V202.9h1.558v-5.031h1.268l.435-1.366Zm-7.644.755a.761.761,0,1,1,.76.755A.757.757,0,0,1,55.108,197.255Zm0,1.294h1.521V202.9H55.108Zm2.173-2.048v6.4H58.8v-1.653l.471-.432,1.485,2.12h1.63l-2.138-3.09,1.92-1.869H60.324L58.8,199.482V196.5Zm16.41,0v6.4h1.522v-1.653l.471-.432,1.486,2.12H78.8l-2.138-3.09,1.92-1.869H76.735l-1.522,1.509V196.5Z" transform="translate(-40.4 -158.772)" fill="#fff" fill-rule="evenodd"/>
  <path id="Path_933" data-name="Path 933" d="M89.794,37.226a12.782,12.782,0,0,0,7.456,2.385V34.263a7.538,7.538,0,0,1-1.566-.164v4.209a12.784,12.784,0,0,1-7.456-2.385V46.836a9.892,9.892,0,0,1-15.394,8.212,9.89,9.89,0,0,0,16.96-6.91V37.226Zm1.932-5.395a7.452,7.452,0,0,1-1.932-4.363V26.78H88.31A7.486,7.486,0,0,0,91.725,31.831ZM76.288,50.86a4.524,4.524,0,0,1,4.973-7.046V38.346a9.978,9.978,0,0,0-1.565-.09v4.255a4.523,4.523,0,0,0-3.408,8.348Z" transform="translate(-58.85 -21.638)" fill="#ee1d52" fill-rule="evenodd"/>
  <path id="Path_934" data-name="Path 934" d="M76.367,35.924a12.784,12.784,0,0,0,7.456,2.385V34.1a7.484,7.484,0,0,1-3.958-2.268,7.486,7.486,0,0,1-3.415-5.051h-3.9V48.138a4.525,4.525,0,0,1-8.125,2.722,4.523,4.523,0,0,1,3.408-8.348V38.256a9.883,9.883,0,0,0-6.862,16.792,9.892,9.892,0,0,0,15.394-8.212Z" transform="translate(-46.988 -21.638)" fill="#fff" fill-rule="evenodd"/>
  <path id="Path_935" data-name="Path 935" d="M77.234,28.621V27.483a7.457,7.457,0,0,1-3.958-1.13A7.478,7.478,0,0,0,77.234,28.621ZM69.86,21.3q-.054-.305-.082-.614V20H64.4V41.358a4.526,4.526,0,0,1-6.559,4.023,4.525,4.525,0,0,0,8.125-2.722V21.3ZM61.246,32.778V31.566A9.9,9.9,0,0,0,50,41.358a9.873,9.873,0,0,0,4.384,8.212,9.883,9.883,0,0,1,6.862-16.792Z" transform="translate(-40.4 -16.16)" fill="#69c9d0" fill-rule="evenodd"/>
  <path id="Path_936" data-name="Path 936" d="M143.623,207.921a2.623,2.623,0,1,0,0-5.246h-.036a2.623,2.623,0,1,0,0,5.246Zm-1.3-2.623a1.286,1.286,0,1,1,1.286,1.276A1.281,1.281,0,0,1,142.319,205.3Z" transform="translate(-113.881 -163.761)" fill="#fff" fill-rule="evenodd"/>
</svg>
