<svg xmlns="http://www.w3.org/2000/svg" xmlns:xlink="http://www.w3.org/1999/xlink" width="49.962" height="49.962" viewBox="0 0 49.962 49.962">
  <defs>
    <linearGradient id="linear-gradient" x1="0.5" x2="0.5" y2="1" gradientUnits="objectBoundingBox">
      <stop offset="0" stop-color="#202f8f"/>
      <stop offset="1" stop-color="#0cf"/>
    </linearGradient>
  </defs>
  <g id="whatsapp-icon-logo-svgrepo-com" transform="translate(0.021 -0.978)">
    <path id="Path_1057" data-name="Path 1057" d="M49.937,38.261c0,.274-.008.867-.025,1.325a26.313,26.313,0,0,1-.264,3.227,10.751,10.751,0,0,1-.9,2.7,9.627,9.627,0,0,1-4.238,4.234,10.772,10.772,0,0,1-2.72.9,26.407,26.407,0,0,1-3.2.259c-.459.016-1.052.025-1.325.025l-24.6,0c-.274,0-.867-.008-1.325-.025a26.325,26.325,0,0,1-3.227-.263,10.752,10.752,0,0,1-2.7-.9A9.627,9.627,0,0,1,1.167,45.5a10.77,10.77,0,0,1-.905-2.72A26.428,26.428,0,0,1,0,39.582c-.016-.459-.025-1.052-.025-1.325l0-24.6c0-.274.008-.867.025-1.325A26.322,26.322,0,0,1,.271,9.1a10.749,10.749,0,0,1,.9-2.7A9.627,9.627,0,0,1,5.414,2.166a10.774,10.774,0,0,1,2.72-.9A26.407,26.407,0,0,1,11.337,1C11.8.986,12.389.978,12.662.978l24.6,0c.274,0,.867.008,1.325.025a26.325,26.325,0,0,1,3.227.264,10.75,10.75,0,0,1,2.7.9,9.627,9.627,0,0,1,4.234,4.238,10.77,10.77,0,0,1,.905,2.72,26.439,26.439,0,0,1,.259,3.2c.016.459.025,1.052.025,1.325l0,24.6Z" transform="translate(0 0)" fill="url(#linear-gradient)"/>
    <g id="Group_1105" data-name="Group 1105" transform="translate(7.457 7.545)">
      <path id="Path_1058" data-name="Path 1058" d="M183.986,140.841a17.918,17.918,0,0,0-28.2,21.61l-2.542,9.281,9.5-2.491a17.908,17.908,0,0,0,8.562,2.18h.007a17.917,17.917,0,0,0,12.673-30.581ZM171.312,168.4h-.006a14.871,14.871,0,0,1-7.579-2.075l-.544-.323-5.636,1.478,1.5-5.493-.354-.563a14.892,14.892,0,1,1,12.615,6.976Zm8.168-11.149c-.448-.224-2.649-1.307-3.059-1.456s-.709-.224-1.007.224-1.156,1.456-1.417,1.755-.522.336-.97.112a12.227,12.227,0,0,1-3.6-2.221,13.485,13.485,0,0,1-2.49-3.1c-.261-.448-.028-.69.2-.913.2-.2.448-.523.671-.784a3.052,3.052,0,0,0,.448-.747.824.824,0,0,0-.037-.784c-.112-.224-1.007-2.427-1.38-3.323-.363-.873-.732-.755-1.007-.768s-.56-.016-.858-.016a1.645,1.645,0,0,0-1.194.56,5.019,5.019,0,0,0-1.567,3.733,8.7,8.7,0,0,0,1.828,4.629c.224.3,3.157,4.819,7.647,6.757a25.754,25.754,0,0,0,2.552.943,6.14,6.14,0,0,0,2.82.177c.86-.128,2.648-1.083,3.022-2.128a3.74,3.74,0,0,0,.261-2.128C180.226,157.584,179.928,157.472,179.48,157.248Z" transform="translate(-153.246 -135.588)" fill="#fff"/>
    </g>
  </g>
</svg>
